<?xml version="1.0" encoding="UTF-8" standalone="no"?>
<svg
   xmlns:dc="http://purl.org/dc/elements/1.1/"
   xmlns:cc="http://creativecommons.org/ns#"
   xmlns:rdf="http://www.w3.org/1999/02/22-rdf-syntax-ns#"
   xmlns:svg="http://www.w3.org/2000/svg"
   xmlns="http://www.w3.org/2000/svg"
   xmlns:sodipodi="http://sodipodi.sourceforge.net/DTD/sodipodi-0.dtd"
   xmlns:inkscape="http://www.inkscape.org/namespaces/inkscape"
   viewBox="0.0 0.0 348.0 348.0"
   fill="none"
   version="1.1"
   id="svg6"
   sodipodi:docname="Three Cryptic Steps.svg"
   inkscape:version="0.92.4 (5da689c313, 2019-01-14)">
  <metadata
     id="metadata12">
    <rdf:RDF>
      <cc:Work
         rdf:about="">
        <dc:format>image/svg+xml</dc:format>
        <dc:type
           rdf:resource="http://purl.org/dc/dcmitype/StillImage" />
      </cc:Work>
    </rdf:RDF>
  </metadata>
  <defs
     id="defs10" />
  <sodipodi:namedview
     pagecolor="#ffffff"
     bordercolor="#666666"
     borderopacity="1"
     objecttolerance="10"
     gridtolerance="10"
     guidetolerance="10"
     inkscape:pageopacity="0"
     inkscape:pageshadow="2"
     inkscape:window-width="3840"
     inkscape:window-height="2004"
     id="namedview8"
     showgrid="false"
     inkscape:zoom="3.8362575"
     inkscape:cx="174"
     inkscape:cy="174"
     inkscape:window-x="-16"
     inkscape:window-y="-16"
     inkscape:window-maximized="1"
     inkscape:current-layer="svg6" />
  <path
     d="M5.079 5.776h336.913v337.67H5.08z"
     stroke-width="2"
     stroke="#000"
     id="path2" />
  <path
     d="M282.734 40.554c0-8.376 6.966-15.165 15.56-15.165 4.126 0 8.084 1.597 11.001 4.441 2.918 2.844 4.558 6.702 4.558 10.724 0 8.376-6.966 15.165-15.56 15.165-8.593 0-15.559-6.79-15.559-15.165z"
     stroke-width="2"
     stroke="#000"
     id="path4" />
  <rect
     style="fill:#ffffff;stroke:#000000;stroke-width:1.0364418"
     id="rect14"
     width="257.24554"
     height="48.969654"
     x="16.179806"
     y="16.445066"
     ry="3.3588405" />
  <path
     inkscape:connector-curvature="0"
     style="stroke:#000000;stroke-width:0.19492659"
     d="m 86.619618,115.70151 h 30.865952 v 35.01166 H 86.619709 Z"
     id="path2-0" />
  <path
     inkscape:connector-curvature="0"
     style="stroke:#000000;stroke-width:0.19492659"
     d="m 117.48557,115.70151 h 30.86595 v 35.01166 h -30.86586 z"
     id="path2-0-6" />
  <path
     inkscape:connector-curvature="0"
     style="stroke:#000000;stroke-width:0.19492659"
     d="m 148.35152,115.70151 h 30.86595 v 35.01166 h -30.86586 z"
     id="path2-0-9" />
  <path
     inkscape:connector-curvature="0"
     style="stroke:#000000;stroke-width:0.19492659"
     d="m 179.21747,115.70151 h 30.86595 v 35.01166 h -30.86586 z"
     id="path2-0-99" />
  <path
     inkscape:connector-curvature="0"
     style="stroke:#000000;stroke-width:0.19492659"
     d="m 210.08342,115.70151 h 30.86595 v 35.01166 h -30.86586 z"
     id="path2-0-4" />
  <path
     inkscape:connector-curvature="0"
     style="stroke:#000000;stroke-width:0.19492659"
     d="m 86.619625,150.71317 h 30.865945 v 35.01166 H 86.619715 Z"
     id="path2-0-44" />
  <path
     inkscape:connector-curvature="0"
     style="stroke:#000000;stroke-width:0.19492659"
     d="m 117.48557,150.71317 h 30.86595 v 35.01166 h -30.86586 z"
     id="path2-0-6-9" />
  <path
     inkscape:connector-curvature="0"
     style="stroke:#000000;stroke-width:0.19492659"
     d="m 148.35152,150.71317 h 30.86595 v 35.01166 h -30.86586 z"
     id="path2-0-9-3" />
  <path
     inkscape:connector-curvature="0"
     style="stroke:#000000;stroke-width:0.19492659"
     d="m 179.21747,150.71317 h 30.86595 v 35.01166 h -30.86586 z"
     id="path2-0-99-9" />
  <path
     inkscape:connector-curvature="0"
     style="stroke:#000000;stroke-width:0.19492659"
     d="m 210.08342,150.71317 h 30.86595 v 35.01166 h -30.86586 z"
     id="path2-0-4-3" />
  <path
     inkscape:connector-curvature="0"
     style="stroke:#000000;stroke-width:0.19492659"
     d="m 86.619615,185.72483 h 30.865955 v 35.01166 H 86.619705 Z"
     id="path2-0-2" />
  <path
     inkscape:connector-curvature="0"
     style="stroke:#000000;stroke-width:0.19492659"
     d="m 117.48557,185.72483 h 30.86595 v 35.01166 h -30.86586 z"
     id="path2-0-6-3" />
  <path
     inkscape:connector-curvature="0"
     style="stroke:#000000;stroke-width:0.19492659"
     d="m 148.35152,185.72483 h 30.86595 v 35.01166 h -30.86586 z"
     id="path2-0-9-7" />
  <path
     inkscape:connector-curvature="0"
     style="stroke:#000000;stroke-width:0.19492659"
     d="m 179.21747,185.72483 h 30.86595 v 35.01166 h -30.86586 z"
     id="path2-0-99-5" />
  <path
     inkscape:connector-curvature="0"
     style="stroke:#000000;stroke-width:0.19492659"
     d="m 210.08342,185.72483 h 30.86595 v 35.01166 h -30.86586 z"
     id="path2-0-4-9" />
  <path
     inkscape:connector-curvature="0"
     style="stroke:#000000;stroke-width:0.19492659"
     d="m 86.619715,220.73649 h 30.865955 v 35.01166 H 86.619805 Z"
     id="path2-0-7" />
  <path
     inkscape:connector-curvature="0"
     style="stroke:#000000;stroke-width:0.19492659"
     d="m 117.48567,220.73649 h 30.86595 v 35.01166 h -30.86586 z"
     id="path2-0-6-90" />
  <path
     inkscape:connector-curvature="0"
     style="stroke:#000000;stroke-width:0.19492659"
     d="m 148.35162,220.73649 h 30.86595 v 35.01166 h -30.86586 z"
     id="path2-0-9-4" />
  <path
     inkscape:connector-curvature="0"
     style="stroke:#000000;stroke-width:0.19492659"
     d="m 179.21757,220.73649 h 30.86594 v 35.01166 h -30.86585 z"
     id="path2-0-99-6" />
  <path
     inkscape:connector-curvature="0"
     style="stroke:#000000;stroke-width:0.19492659"
     d="m 210.08351,220.73649 h 30.86595 v 35.01166 H 210.0836 Z"
     id="path2-0-4-2" />
  <path
     inkscape:connector-curvature="0"
     style="stroke:#000000;stroke-width:0.19492659"
     d="m 86.619815,255.74815 h 30.865945 v 35.01166 H 86.619905 Z"
     id="path2-0-3" />
  <path
     inkscape:connector-curvature="0"
     style="stroke:#000000;stroke-width:0.19492659"
     d="m 117.48576,255.74815 h 30.86595 v 35.01166 h -30.86586 z"
     id="path2-0-6-1" />
  <path
     inkscape:connector-curvature="0"
     style="stroke:#000000;stroke-width:0.19492659"
     d="m 148.35171,255.74815 h 30.86595 v 35.01166 H 148.3518 Z"
     id="path2-0-9-6" />
  <path
     inkscape:connector-curvature="0"
     style="stroke:#000000;stroke-width:0.19492659"
     d="m 179.21766,255.74815 h 30.86595 v 35.01166 h -30.86586 z"
     id="path2-0-99-3" />
  <path
     inkscape:connector-curvature="0"
     style="stroke:#000000;stroke-width:0.19492659"
     d="m 210.08361,255.74815 h 30.86595 v 35.01166 H 210.0837 Z"
     id="path2-0-4-92" />
  <path
     inkscape:connector-curvature="0"
     style="stroke:#000000;stroke-width:0.19492659"
     d="m 86.61961,115.70151 h 30.86596 v 35.01166 H 86.6197 Z"
     id="path2-0-67" />
  <path
     inkscape:connector-curvature="0"
     style="stroke:#000000;stroke-width:0.19492659"
     d="m 117.48557,115.70151 h 30.86595 v 35.01166 h -30.86586 z"
     id="path2-0-6-5" />
  <path
     inkscape:connector-curvature="0"
     style="stroke:#000000;stroke-width:0.19492659"
     d="m 148.35152,115.70151 h 30.86595 v 35.01166 h -30.86586 z"
     id="path2-0-9-9" />
  <path
     inkscape:connector-curvature="0"
     style="stroke:#000000;stroke-width:0.19492659"
     d="m 179.21747,115.70151 h 30.86595 v 35.01166 h -30.86586 z"
     id="path2-0-99-2" />
  <path
     inkscape:connector-curvature="0"
     style="stroke:#000000;stroke-width:0.19492659"
     d="m 210.08342,115.70151 h 30.86595 v 35.01166 h -30.86586 z"
     id="path2-0-4-1" />
  <path
     inkscape:connector-curvature="0"
     style="stroke:#000000;stroke-width:0.19492659"
     d="m 86.61962,150.71317 h 30.86595 v 35.01166 H 86.61971 Z"
     id="path2-0-44-6" />
  <path
     inkscape:connector-curvature="0"
     style="stroke:#000000;stroke-width:0.19492659"
     d="m 117.48557,150.71317 h 30.86595 v 35.01166 h -30.86586 z"
     id="path2-0-6-9-4" />
  <path
     inkscape:connector-curvature="0"
     style="stroke:#000000;stroke-width:0.19492659"
     d="m 148.35152,150.71317 h 30.86595 v 35.01166 h -30.86586 z"
     id="path2-0-9-3-5" />
  <path
     inkscape:connector-curvature="0"
     style="stroke:#000000;stroke-width:0.19492659"
     d="m 179.21747,150.71317 h 30.86595 v 35.01166 h -30.86586 z"
     id="path2-0-99-9-2" />
  <path
     inkscape:connector-curvature="0"
     style="stroke:#000000;stroke-width:0.19492659"
     d="m 210.08342,150.71317 h 30.86595 v 35.01166 h -30.86586 z"
     id="path2-0-4-3-4" />
  <path
     inkscape:connector-curvature="0"
     style="stroke:#000000;stroke-width:0.19492659"
     d="m 86.61961,185.72483 h 30.86596 v 35.01166 H 86.6197 Z"
     id="path2-0-2-0" />
  <path
     inkscape:connector-curvature="0"
     style="stroke:#000000;stroke-width:0.19492659"
     d="m 117.48557,185.72483 h 30.86595 v 35.01166 h -30.86586 z"
     id="path2-0-6-3-6" />
  <path
     inkscape:connector-curvature="0"
     style="stroke:#000000;stroke-width:0.19492659"
     d="m 148.35152,185.72483 h 30.86595 v 35.01166 h -30.86586 z"
     id="path2-0-9-7-0" />
  <path
     inkscape:connector-curvature="0"
     style="stroke:#000000;stroke-width:0.19492659"
     d="m 179.21747,185.72483 h 30.86595 v 35.01166 h -30.86586 z"
     id="path2-0-99-5-0" />
  <path
     inkscape:connector-curvature="0"
     style="stroke:#000000;stroke-width:0.19492659"
     d="m 210.08342,185.72483 h 30.86595 v 35.01166 h -30.86586 z"
     id="path2-0-4-9-2" />
  <path
     inkscape:connector-curvature="0"
     style="stroke:#000000;stroke-width:0.19492659"
     d="m 86.61971,220.73649 h 30.86596 v 35.01166 H 86.6198 Z"
     id="path2-0-7-1" />
  <path
     inkscape:connector-curvature="0"
     style="stroke:#000000;stroke-width:0.19492659"
     d="m 117.48567,220.73649 h 30.86595 v 35.01166 h -30.86586 z"
     id="path2-0-6-90-4" />
  <path
     inkscape:connector-curvature="0"
     style="stroke:#000000;stroke-width:0.19492659"
     d="m 148.35162,220.73649 h 30.86595 v 35.01166 h -30.86586 z"
     id="path2-0-9-4-8" />
  <path
     inkscape:connector-curvature="0"
     style="stroke:#000000;stroke-width:0.19492659"
     d="m 179.21757,220.73649 h 30.86594 v 35.01166 h -30.86585 z"
     id="path2-0-99-6-1" />
  <path
     inkscape:connector-curvature="0"
     style="stroke:#000000;stroke-width:0.19492659"
     d="m 210.08351,220.73649 h 30.86595 v 35.01166 H 210.0836 Z"
     id="path2-0-4-2-6" />
  <path
     inkscape:connector-curvature="0"
     style="stroke:#000000;stroke-width:0.19492659"
     d="m 86.61981,255.74815 h 30.86595 v 35.01166 H 86.6199 Z"
     id="path2-0-3-2" />
  <path
     inkscape:connector-curvature="0"
     style="stroke:#000000;stroke-width:0.19492659"
     d="m 117.48576,255.74815 h 30.86595 v 35.01166 h -30.86586 z"
     id="path2-0-6-1-5" />
  <path
     inkscape:connector-curvature="0"
     style="stroke:#000000;stroke-width:0.19492659"
     d="m 148.35171,255.74815 h 30.86595 v 35.01166 H 148.3518 Z"
     id="path2-0-9-6-1" />
  <path
     inkscape:connector-curvature="0"
     style="stroke:#000000;stroke-width:0.19492659"
     d="m 179.21766,255.74815 h 30.86595 v 35.01166 h -30.86586 z"
     id="path2-0-99-3-7" />
  <path
     inkscape:connector-curvature="0"
     style="stroke:#000000;stroke-width:0.19492659"
     d="m 210.08361,255.74815 h 30.86595 v 35.01166 H 210.0837 Z"
     id="path2-0-4-92-5" />
  <path
     inkscape:connector-curvature="0"
     style="stroke:#000000;stroke-width:0.19492659"
     d="m 86.61971,115.70151 h 30.86595 v 35.01166 H 86.6198 Z"
     id="path2-0-96" />
  <path
     inkscape:connector-curvature="0"
     style="stroke:#000000;stroke-width:0.19492659"
     d="m 117.48566,115.70151 h 30.86595 v 35.01166 h -30.86586 z"
     id="path2-0-6-6" />
  <path
     inkscape:connector-curvature="0"
     style="stroke:#000000;stroke-width:0.19492659"
     d="m 148.35161,115.70151 h 30.86595 v 35.01166 H 148.3517 Z"
     id="path2-0-9-5" />
  <path
     inkscape:connector-curvature="0"
     style="stroke:#000000;stroke-width:0.19492659"
     d="m 179.21756,115.70151 h 30.86595 v 35.01166 h -30.86586 z"
     id="path2-0-99-8" />
  <path
     inkscape:connector-curvature="0"
     style="stroke:#000000;stroke-width:0.19492659"
     d="m 210.08351,115.70151 h 30.86595 v 35.01166 H 210.0836 Z"
     id="path2-0-4-5" />
  <path
     inkscape:connector-curvature="0"
     style="stroke:#000000;stroke-width:0.19492659"
     d="m 86.61972,150.71317 h 30.86594 v 35.01166 H 86.61981 Z"
     id="path2-0-44-2" />
  <path
     inkscape:connector-curvature="0"
     style="stroke:#000000;stroke-width:0.19492659"
     d="m 117.48566,150.71317 h 30.86595 v 35.01166 h -30.86586 z"
     id="path2-0-6-9-45" />
  <path
     inkscape:connector-curvature="0"
     style="stroke:#000000;stroke-width:0.19492659"
     d="m 148.35161,150.71317 h 30.86595 v 35.01166 H 148.3517 Z"
     id="path2-0-9-3-0" />
  <path
     inkscape:connector-curvature="0"
     style="stroke:#000000;stroke-width:0.19492659"
     d="m 179.21756,150.71317 h 30.86595 v 35.01166 h -30.86586 z"
     id="path2-0-99-9-8" />
  <path
     inkscape:connector-curvature="0"
     style="stroke:#000000;stroke-width:0.19492659"
     d="m 210.08351,150.71317 h 30.86595 v 35.01166 H 210.0836 Z"
     id="path2-0-4-3-44" />
  <path
     inkscape:connector-curvature="0"
     style="stroke:#000000;stroke-width:0.19492659"
     d="m 86.61971,185.72483 h 30.86595 v 35.01166 H 86.6198 Z"
     id="path2-0-2-5" />
  <path
     inkscape:connector-curvature="0"
     style="stroke:#000000;stroke-width:0.19492659"
     d="m 117.48566,185.72483 h 30.86595 v 35.01166 h -30.86586 z"
     id="path2-0-6-3-7" />
  <path
     inkscape:connector-curvature="0"
     style="stroke:#000000;stroke-width:0.19492659"
     d="m 148.35161,185.72483 h 30.86595 v 35.01166 H 148.3517 Z"
     id="path2-0-9-7-5" />
  <path
     inkscape:connector-curvature="0"
     style="stroke:#000000;stroke-width:0.19492659"
     d="m 179.21756,185.72483 h 30.86595 v 35.01166 h -30.86586 z"
     id="path2-0-99-5-7" />
  <path
     inkscape:connector-curvature="0"
     style="stroke:#000000;stroke-width:0.19492659"
     d="m 210.08351,185.72483 h 30.86595 v 35.01166 H 210.0836 Z"
     id="path2-0-4-9-6" />
  <path
     inkscape:connector-curvature="0"
     style="stroke:#000000;stroke-width:0.19492659"
     d="m 86.61981,220.73649 h 30.86595 v 35.01166 H 86.6199 Z"
     id="path2-0-7-7" />
  <path
     inkscape:connector-curvature="0"
     style="stroke:#000000;stroke-width:0.19492659"
     d="m 117.48576,220.73649 h 30.86595 v 35.01166 h -30.86586 z"
     id="path2-0-6-90-5" />
  <path
     inkscape:connector-curvature="0"
     style="stroke:#000000;stroke-width:0.19492659"
     d="m 148.35171,220.73649 h 30.86595 v 35.01166 H 148.3518 Z"
     id="path2-0-9-4-7" />
  <path
     inkscape:connector-curvature="0"
     style="stroke:#000000;stroke-width:0.19492659"
     d="m 179.21766,220.73649 h 30.86594 v 35.01166 h -30.86585 z"
     id="path2-0-99-6-3" />
  <path
     inkscape:connector-curvature="0"
     style="stroke:#000000;stroke-width:0.19492659"
     d="m 210.0836,220.73649 h 30.86595 v 35.01166 h -30.86586 z"
     id="path2-0-4-2-1" />
  <path
     inkscape:connector-curvature="0"
     style="stroke:#000000;stroke-width:0.19492659"
     d="m 86.61991,255.74815 h 30.86594 v 35.01166 H 86.62 Z"
     id="path2-0-3-4" />
  <path
     inkscape:connector-curvature="0"
     style="stroke:#000000;stroke-width:0.19492659"
     d="m 117.48585,255.74815 h 30.86595 v 35.01166 h -30.86586 z"
     id="path2-0-6-1-8" />
  <path
     inkscape:connector-curvature="0"
     style="stroke:#000000;stroke-width:0.19492659"
     d="m 148.3518,255.74815 h 30.86595 v 35.01166 h -30.86586 z"
     id="path2-0-9-6-5" />
  <path
     inkscape:connector-curvature="0"
     style="stroke:#000000;stroke-width:0.19492659"
     d="m 179.21775,255.74815 h 30.86595 v 35.01166 h -30.86586 z"
     id="path2-0-99-3-0" />
  <path
     inkscape:connector-curvature="0"
     style="stroke:#000000;stroke-width:0.19492659"
     d="m 210.0837,255.74815 h 30.86595 v 35.01166 h -30.86586 z"
     id="path2-0-4-92-0" />
  <path
     inkscape:connector-curvature="0"
     style="stroke:#000000;stroke-width:0.19492659"
     d="m 86.619799,115.70152 h 30.865951 v 35.01166 H 86.61989 Z"
     id="path2-0-8" />
  <path
     inkscape:connector-curvature="0"
     style="stroke:#000000;stroke-width:0.19492659"
     d="m 117.48575,115.70152 h 30.86595 v 35.01166 h -30.86586 z"
     id="path2-0-6-8" />
  <path
     inkscape:connector-curvature="0"
     style="stroke:#000000;stroke-width:0.19492659"
     d="m 148.3517,115.70152 h 30.86595 v 35.01166 h -30.86586 z"
     id="path2-0-9-36" />
  <path
     inkscape:connector-curvature="0"
     style="stroke:#000000;stroke-width:0.19492659"
     d="m 179.21765,115.70152 h 30.86595 v 35.01166 h -30.86586 z"
     id="path2-0-99-7" />
  <path
     inkscape:connector-curvature="0"
     style="stroke:#000000;stroke-width:0.19492659"
     d="m 210.0836,115.70152 h 30.86595 v 35.01166 h -30.86586 z"
     id="path2-0-4-4" />
  <path
     inkscape:connector-curvature="0"
     style="stroke:#000000;stroke-width:0.19492659"
     d="m 86.619806,150.71318 h 30.865944 v 35.01166 H 86.619896 Z"
     id="path2-0-44-62" />
  <path
     inkscape:connector-curvature="0"
     style="stroke:#000000;stroke-width:0.19492659"
     d="m 117.48575,150.71318 h 30.86595 v 35.01166 h -30.86586 z"
     id="path2-0-6-9-5" />
  <path
     inkscape:connector-curvature="0"
     style="stroke:#000000;stroke-width:0.19492659"
     d="m 148.3517,150.71318 h 30.86595 v 35.01166 h -30.86586 z"
     id="path2-0-9-3-4" />
  <path
     inkscape:connector-curvature="0"
     style="stroke:#000000;stroke-width:0.19492659"
     d="m 179.21765,150.71318 h 30.86595 v 35.01166 h -30.86586 z"
     id="path2-0-99-9-7" />
  <path
     inkscape:connector-curvature="0"
     style="stroke:#000000;stroke-width:0.19492659"
     d="m 210.0836,150.71318 h 30.86595 v 35.01166 h -30.86586 z"
     id="path2-0-4-3-3" />
  <path
     inkscape:connector-curvature="0"
     style="stroke:#000000;stroke-width:0.19492659"
     d="m 86.619796,185.72484 h 30.865954 v 35.01165 H 86.619886 Z"
     id="path2-0-2-00" />
  <path
     inkscape:connector-curvature="0"
     style="stroke:#000000;stroke-width:0.19492659"
     d="m 117.48575,185.72484 h 30.86595 v 35.01165 h -30.86586 z"
     id="path2-0-6-3-3" />
  <path
     inkscape:connector-curvature="0"
     style="stroke:#000000;stroke-width:0.19492659"
     d="m 148.3517,185.72484 h 30.86595 v 35.01165 h -30.86586 z"
     id="path2-0-9-7-05" />
  <path
     inkscape:connector-curvature="0"
     style="stroke:#000000;stroke-width:0.19492659"
     d="m 179.21765,185.72484 h 30.86595 v 35.01165 h -30.86586 z"
     id="path2-0-99-5-71" />
  <path
     inkscape:connector-curvature="0"
     style="stroke:#000000;stroke-width:0.19492659"
     d="m 210.0836,185.72484 h 30.86595 v 35.01165 h -30.86586 z"
     id="path2-0-4-9-21" />
  <path
     inkscape:connector-curvature="0"
     style="stroke:#000000;stroke-width:0.19492659"
     d="m 86.619896,220.73649 h 30.865954 v 35.01166 H 86.619986 Z"
     id="path2-0-7-77" />
  <path
     inkscape:connector-curvature="0"
     style="stroke:#000000;stroke-width:0.19492659"
     d="m 117.48585,220.73649 h 30.86595 v 35.01166 h -30.86586 z"
     id="path2-0-6-90-6" />
  <path
     inkscape:connector-curvature="0"
     style="stroke:#000000;stroke-width:0.19492659"
     d="m 148.3518,220.73649 h 30.86595 v 35.01166 h -30.86586 z"
     id="path2-0-9-4-5" />
  <path
     inkscape:connector-curvature="0"
     style="stroke:#000000;stroke-width:0.19492659"
     d="m 179.21775,220.73649 h 30.86594 v 35.01166 h -30.86585 z"
     id="path2-0-99-6-5" />
  <path
     inkscape:connector-curvature="0"
     style="stroke:#000000;stroke-width:0.19492659"
     d="m 210.08369,220.73649 h 30.86595 v 35.01166 h -30.86586 z"
     id="path2-0-4-2-2" />
  <path
     inkscape:connector-curvature="0"
     style="stroke:#000000;stroke-width:0.19492659"
     d="m 86.619996,255.74815 h 30.865944 v 35.01166 H 86.620086 Z"
     id="path2-0-3-6" />
  <path
     inkscape:connector-curvature="0"
     style="stroke:#000000;stroke-width:0.19492659"
     d="m 117.48594,255.74815 h 30.86595 v 35.01166 h -30.86586 z"
     id="path2-0-6-1-9" />
  <path
     inkscape:connector-curvature="0"
     style="stroke:#000000;stroke-width:0.19492659"
     d="m 148.35189,255.74815 h 30.86595 v 35.01166 h -30.86586 z"
     id="path2-0-9-6-4" />
  <path
     inkscape:connector-curvature="0"
     style="stroke:#000000;stroke-width:0.19492659"
     d="m 179.21784,255.74815 h 30.86595 v 35.01166 h -30.86586 z"
     id="path2-0-99-3-3" />
  <path
     inkscape:connector-curvature="0"
     style="stroke:#000000;stroke-width:0.19492659"
     d="m 210.08379,255.74815 h 30.86595 v 35.01166 h -30.86586 z"
     id="path2-0-4-92-6" />
  <path
     inkscape:connector-curvature="0"
     style="stroke:#000000;stroke-width:0.19492659"
     d="m 86.619791,115.70152 h 30.865959 v 35.01166 H 86.619881 Z"
     id="path2-0-67-0" />
  <path
     inkscape:connector-curvature="0"
     style="stroke:#000000;stroke-width:0.19492659"
     d="m 117.48575,115.70152 h 30.86595 v 35.01166 h -30.86586 z"
     id="path2-0-6-5-1" />
  <path
     inkscape:connector-curvature="0"
     style="stroke:#000000;stroke-width:0.19492659"
     d="m 148.3517,115.70152 h 30.86595 v 35.01166 h -30.86586 z"
     id="path2-0-9-9-9" />
  <path
     inkscape:connector-curvature="0"
     style="stroke:#000000;stroke-width:0.19492659"
     d="m 179.21765,115.70152 h 30.86595 v 35.01166 h -30.86586 z"
     id="path2-0-99-2-8" />
  <path
     inkscape:connector-curvature="0"
     style="stroke:#000000;stroke-width:0.19492659"
     d="m 210.0836,115.70152 h 30.86595 v 35.01166 h -30.86586 z"
     id="path2-0-4-1-5" />
  <path
     inkscape:connector-curvature="0"
     style="stroke:#000000;stroke-width:0.19492659"
     d="m 86.619801,150.71318 h 30.865949 v 35.01166 H 86.619891 Z"
     id="path2-0-44-6-0" />
  <path
     inkscape:connector-curvature="0"
     style="stroke:#000000;stroke-width:0.19492659"
     d="m 117.48575,150.71318 h 30.86595 v 35.01166 h -30.86586 z"
     id="path2-0-6-9-4-4" />
  <path
     inkscape:connector-curvature="0"
     style="stroke:#000000;stroke-width:0.19492659"
     d="m 148.3517,150.71318 h 30.86595 v 35.01166 h -30.86586 z"
     id="path2-0-9-3-5-5" />
  <path
     inkscape:connector-curvature="0"
     style="stroke:#000000;stroke-width:0.19492659"
     d="m 179.21765,150.71318 h 30.86595 v 35.01166 h -30.86586 z"
     id="path2-0-99-9-2-2" />
  <path
     inkscape:connector-curvature="0"
     style="stroke:#000000;stroke-width:0.19492659"
     d="m 210.0836,150.71318 h 30.86595 v 35.01166 h -30.86586 z"
     id="path2-0-4-3-4-6" />
  <path
     inkscape:connector-curvature="0"
     style="stroke:#000000;stroke-width:0.19492659"
     d="m 86.619791,185.72484 h 30.865959 v 35.01165 H 86.619881 Z"
     id="path2-0-2-0-7" />
  <path
     inkscape:connector-curvature="0"
     style="stroke:#000000;stroke-width:0.19492659"
     d="m 117.48575,185.72484 h 30.86595 v 35.01165 h -30.86586 z"
     id="path2-0-6-3-6-4" />
  <path
     inkscape:connector-curvature="0"
     style="stroke:#000000;stroke-width:0.19492659"
     d="m 148.3517,185.72484 h 30.86595 v 35.01165 h -30.86586 z"
     id="path2-0-9-7-0-4" />
  <path
     inkscape:connector-curvature="0"
     style="stroke:#000000;stroke-width:0.19492659"
     d="m 179.21765,185.72484 h 30.86595 v 35.01165 h -30.86586 z"
     id="path2-0-99-5-0-5" />
  <path
     inkscape:connector-curvature="0"
     style="stroke:#000000;stroke-width:0.19492659"
     d="m 210.0836,185.72484 h 30.86595 v 35.01165 h -30.86586 z"
     id="path2-0-4-9-2-3" />
  <path
     inkscape:connector-curvature="0"
     style="stroke:#000000;stroke-width:0.19492659"
     d="m 86.619891,220.73649 h 30.865959 v 35.01166 H 86.619981 Z"
     id="path2-0-7-1-9" />
  <path
     inkscape:connector-curvature="0"
     style="stroke:#000000;stroke-width:0.19492659"
     d="m 117.48585,220.73649 h 30.86595 v 35.01166 h -30.86586 z"
     id="path2-0-6-90-4-3" />
  <path
     inkscape:connector-curvature="0"
     style="stroke:#000000;stroke-width:0.19492659"
     d="m 148.3518,220.73649 h 30.86595 v 35.01166 h -30.86586 z"
     id="path2-0-9-4-8-7" />
  <path
     inkscape:connector-curvature="0"
     style="stroke:#000000;stroke-width:0.19492659"
     d="m 179.21775,220.73649 h 30.86594 v 35.01166 h -30.86585 z"
     id="path2-0-99-6-1-0" />
  <path
     inkscape:connector-curvature="0"
     style="stroke:#000000;stroke-width:0.19492659"
     d="m 210.08369,220.73649 h 30.86595 v 35.01166 h -30.86586 z"
     id="path2-0-4-2-6-5" />
  <path
     inkscape:connector-curvature="0"
     style="stroke:#000000;stroke-width:0.19492659"
     d="m 86.619991,255.74815 h 30.865949 v 35.01166 H 86.620081 Z"
     id="path2-0-3-2-5" />
  <path
     inkscape:connector-curvature="0"
     style="stroke:#000000;stroke-width:0.19492659"
     d="m 117.48594,255.74815 h 30.86595 v 35.01166 h -30.86586 z"
     id="path2-0-6-1-5-1" />
  <path
     inkscape:connector-curvature="0"
     style="stroke:#000000;stroke-width:0.19492659"
     d="m 148.35189,255.74815 h 30.86595 v 35.01166 h -30.86586 z"
     id="path2-0-9-6-1-5" />
  <path
     inkscape:connector-curvature="0"
     style="stroke:#000000;stroke-width:0.19492659"
     d="m 179.21784,255.74815 h 30.86595 v 35.01166 h -30.86586 z"
     id="path2-0-99-3-7-5" />
  <path
     inkscape:connector-curvature="0"
     style="stroke:#000000;stroke-width:0.19492659"
     d="m 210.08379,255.74815 h 30.86595 v 35.01166 h -30.86586 z"
     id="path2-0-4-92-5-5" />
  <path
     inkscape:connector-curvature="0"
     style="stroke:#000000;stroke-width:0.19492659"
     d="m 86.619891,115.70152 h 30.865949 v 35.01166 H 86.619981 Z"
     id="path2-0-96-9" />
  <path
     inkscape:connector-curvature="0"
     style="stroke:#000000;stroke-width:0.19492659"
     d="m 117.48584,115.70152 h 30.86595 v 35.01166 h -30.86586 z"
     id="path2-0-6-6-5" />
  <path
     inkscape:connector-curvature="0"
     style="stroke:#000000;stroke-width:0.19492659"
     d="m 148.35179,115.70152 h 30.86595 v 35.01166 h -30.86586 z"
     id="path2-0-9-5-0" />
  <path
     inkscape:connector-curvature="0"
     style="stroke:#000000;stroke-width:0.19492659"
     d="m 179.21774,115.70152 h 30.86595 v 35.01166 h -30.86586 z"
     id="path2-0-99-8-9" />
  <path
     inkscape:connector-curvature="0"
     style="stroke:#000000;stroke-width:0.19492659"
     d="m 210.08369,115.70152 h 30.86595 v 35.01166 h -30.86586 z"
     id="path2-0-4-5-3" />
  <path
     inkscape:connector-curvature="0"
     style="stroke:#000000;stroke-width:0.19492659"
     d="m 86.619901,150.71318 h 30.865939 v 35.01166 H 86.619991 Z"
     id="path2-0-44-2-9" />
  <path
     inkscape:connector-curvature="0"
     style="stroke:#000000;stroke-width:0.19492659"
     d="m 117.48584,150.71318 h 30.86595 v 35.01166 h -30.86586 z"
     id="path2-0-6-9-45-7" />
  <path
     inkscape:connector-curvature="0"
     style="stroke:#000000;stroke-width:0.19492659"
     d="m 148.35179,150.71318 h 30.86595 v 35.01166 h -30.86586 z"
     id="path2-0-9-3-0-9" />
  <path
     inkscape:connector-curvature="0"
     style="stroke:#000000;stroke-width:0.19492659"
     d="m 179.21774,150.71318 h 30.86595 v 35.01166 h -30.86586 z"
     id="path2-0-99-9-8-8" />
  <path
     inkscape:connector-curvature="0"
     style="stroke:#000000;stroke-width:0.19492659"
     d="m 210.08369,150.71318 h 30.86595 v 35.01166 h -30.86586 z"
     id="path2-0-4-3-44-3" />
  <path
     inkscape:connector-curvature="0"
     style="stroke:#000000;stroke-width:0.19492659"
     d="m 86.619891,185.72484 h 30.865949 v 35.01165 H 86.619981 Z"
     id="path2-0-2-5-4" />
  <path
     inkscape:connector-curvature="0"
     style="stroke:#000000;stroke-width:0.19492659"
     d="m 117.48584,185.72484 h 30.86595 v 35.01165 h -30.86586 z"
     id="path2-0-6-3-7-0" />
  <path
     inkscape:connector-curvature="0"
     style="stroke:#000000;stroke-width:0.19492659"
     d="m 148.35179,185.72484 h 30.86595 v 35.01165 h -30.86586 z"
     id="path2-0-9-7-5-9" />
  <path
     inkscape:connector-curvature="0"
     style="stroke:#000000;stroke-width:0.19492659"
     d="m 179.21774,185.72484 h 30.86595 v 35.01165 h -30.86586 z"
     id="path2-0-99-5-7-0" />
  <path
     inkscape:connector-curvature="0"
     style="stroke:#000000;stroke-width:0.19492659"
     d="m 210.08369,185.72484 h 30.86595 v 35.01165 h -30.86586 z"
     id="path2-0-4-9-6-9" />
  <path
     inkscape:connector-curvature="0"
     style="stroke:#000000;stroke-width:0.19492659"
     d="m 86.619991,220.73649 h 30.865949 v 35.01166 H 86.620081 Z"
     id="path2-0-7-7-5" />
  <path
     inkscape:connector-curvature="0"
     style="stroke:#000000;stroke-width:0.19492659"
     d="m 117.48594,220.73649 h 30.86595 v 35.01166 h -30.86586 z"
     id="path2-0-6-90-5-4" />
  <path
     inkscape:connector-curvature="0"
     style="stroke:#000000;stroke-width:0.19492659"
     d="m 148.35189,220.73649 h 30.86595 v 35.01166 h -30.86586 z"
     id="path2-0-9-4-7-1" />
  <path
     inkscape:connector-curvature="0"
     style="stroke:#000000;stroke-width:0.19492659"
     d="m 179.21784,220.73649 h 30.86594 v 35.01166 h -30.86585 z"
     id="path2-0-99-6-3-0" />
  <path
     inkscape:connector-curvature="0"
     style="stroke:#000000;stroke-width:0.19492659"
     d="m 210.08378,220.73649 h 30.86595 v 35.01166 h -30.86586 z"
     id="path2-0-4-2-1-0" />
  <path
     inkscape:connector-curvature="0"
     style="stroke:#000000;stroke-width:0.19492659"
     d="m 86.620091,255.74815 h 30.865939 v 35.01166 H 86.620181 Z"
     id="path2-0-3-4-4" />
  <path
     inkscape:connector-curvature="0"
     style="stroke:#000000;stroke-width:0.19492659"
     d="m 117.48603,255.74815 h 30.86595 v 35.01166 h -30.86586 z"
     id="path2-0-6-1-8-0" />
  <path
     inkscape:connector-curvature="0"
     style="stroke:#000000;stroke-width:0.19492659"
     d="m 148.35198,255.74815 h 30.86595 v 35.01166 h -30.86586 z"
     id="path2-0-9-6-5-3" />
  <path
     inkscape:connector-curvature="0"
     style="stroke:#000000;stroke-width:0.19492659"
     d="m 179.21793,255.74815 h 30.86595 v 35.01166 h -30.86586 z"
     id="path2-0-99-3-0-0" />
  <path
     inkscape:connector-curvature="0"
     style="stroke:#000000;stroke-width:0.19492659"
     d="m 210.08388,255.74815 h 30.86595 v 35.01166 h -30.86586 z"
     id="path2-0-4-92-0-6" />
</svg>
